<svg xmlns="http://www.w3.org/2000/svg" viewBox="0 0 1600 900" fill="none">
  <rect width="1600" height="900" fill="#05070B"/>
  <circle cx="1184" cy="228" r="220" fill="url(#glow)"/>
  <g opacity=".22" stroke="#22416C">
    <path d="M180 180H1420"/>
    <path d="M180 340H1420"/>
    <path d="M180 500H1420"/>
    <path d="M180 660H1420"/>
    <path d="M180 820H1420"/>
  </g>
  <path d="M288 680C450 540 572 458 744 434C922 409 1069 497 1212 497C1321 497 1400 456 1484 382" stroke="url(#blue)" stroke-width="4" stroke-linecap="round"/>
  <path d="M322 754C462 642 566 588 686 576C860 560 1009 639 1168 660C1288 676 1394 648 1472 594" stroke="url(#green)" stroke-width="3" stroke-linecap="round"/>
  <g opacity=".82">
    <rect x="188" y="218" width="202" height="334" rx="28" fill="#0F1827" stroke="#243856"/>
    <rect x="252" y="286" width="76" height="88" rx="12" fill="#111F31" stroke="#2C4B72"/>
    <rect x="252" y="406" width="76" height="68" rx="12" fill="#111F31" stroke="#2C4B72"/>
    <path d="M290 552V650" stroke="#43BAFF" stroke-width="6" stroke-linecap="round"/>
    <path d="M320 552V650" stroke="#35D18A" stroke-width="6" stroke-linecap="round"/>
  </g>
  <g opacity=".74" fill="#43BAFF">
    <circle cx="744" cy="434" r="8"/>
    <circle cx="1212" cy="497" r="8"/>
    <circle cx="1472" cy="594" r="8"/>
  </g>
  <defs>
    <radialGradient id="glow" cx="0" cy="0" r="1" gradientUnits="userSpaceOnUse" gradientTransform="translate(1184 228) rotate(90) scale(220)">
      <stop stop-color="#176BFF" stop-opacity=".34"/>
      <stop offset="1" stop-color="#176BFF" stop-opacity="0"/>
    </radialGradient>
    <linearGradient id="blue" x1="288" x2="1484" y1="556" y2="382" gradientUnits="userSpaceOnUse">
      <stop stop-color="#43BAFF" stop-opacity=".12"/>
      <stop offset=".55" stop-color="#43BAFF"/>
      <stop offset="1" stop-color="#43BAFF" stop-opacity=".18"/>
    </linearGradient>
    <linearGradient id="green" x1="322" x2="1472" y1="694" y2="594" gradientUnits="userSpaceOnUse">
      <stop stop-color="#35D18A" stop-opacity=".1"/>
      <stop offset=".5" stop-color="#35D18A"/>
      <stop offset="1" stop-color="#43BAFF" stop-opacity=".12"/>
    </linearGradient>
  </defs>
</svg>
