<svg xmlns="http://www.w3.org/2000/svg" viewBox="0 0 1600 900" fill="none">
  <rect width="1600" height="900" fill="#05070A"/>
  <circle cx="1210" cy="176" r="230" fill="url(#blueGlow)"/>
  <circle cx="330" cy="170" r="190" fill="url(#greenGlow)"/>
  <g opacity=".22" stroke="#233F64">
    <path d="M140 166H1460"/>
    <path d="M140 320H1460"/>
    <path d="M140 474H1460"/>
    <path d="M140 628H1460"/>
    <path d="M140 782H1460"/>
  </g>
  <g opacity=".88">
    <rect x="252" y="226" width="182" height="378" rx="32" fill="#0F1828" stroke="#253A58"/>
    <rect x="294" y="280" width="98" height="88" rx="16" fill="#13243A" stroke="#325780"/>
    <path d="M344 604V708" stroke="#43BAFF" stroke-width="8" stroke-linecap="round"/>
    <path d="M378 604V708" stroke="#43BAFF" stroke-width="8" stroke-linecap="round"/>
  </g>
  <path d="M444 442C628 442 742 364 908 364C1094 364 1184 506 1364 506" stroke="url(#pulseBlue)" stroke-width="5" stroke-linecap="round"/>
  <path d="M444 502C648 502 774 618 958 618C1124 618 1236 522 1400 430" stroke="url(#pulseGreen)" stroke-width="4" stroke-linecap="round"/>
  <g opacity=".8" fill="#43BAFF">
    <circle cx="908" cy="364" r="9"/>
    <circle cx="1364" cy="506" r="9"/>
  </g>
  <defs>
    <radialGradient id="blueGlow" cx="0" cy="0" r="1" gradientUnits="userSpaceOnUse" gradientTransform="translate(1210 176) rotate(90) scale(230)">
      <stop stop-color="#176BFF" stop-opacity=".34"/>
      <stop offset="1" stop-color="#176BFF" stop-opacity="0"/>
    </radialGradient>
    <radialGradient id="greenGlow" cx="0" cy="0" r="1" gradientUnits="userSpaceOnUse" gradientTransform="translate(330 170) rotate(90) scale(190)">
      <stop stop-color="#35D18A" stop-opacity=".18"/>
      <stop offset="1" stop-color="#35D18A" stop-opacity="0"/>
    </radialGradient>
    <linearGradient id="pulseBlue" x1="444" x2="1364" y1="436" y2="506" gradientUnits="userSpaceOnUse">
      <stop stop-color="#43BAFF" stop-opacity=".14"/>
      <stop offset=".5" stop-color="#43BAFF"/>
      <stop offset="1" stop-color="#43BAFF" stop-opacity=".12"/>
    </linearGradient>
    <linearGradient id="pulseGreen" x1="444" x2="1400" y1="540" y2="430" gradientUnits="userSpaceOnUse">
      <stop stop-color="#35D18A" stop-opacity=".1"/>
      <stop offset=".5" stop-color="#35D18A"/>
      <stop offset="1" stop-color="#43BAFF" stop-opacity=".16"/>
    </linearGradient>
  </defs>
</svg>
